<?xml version="1.0" encoding="UTF-8"?>
<svg width="362px" height="348px" viewBox="0 0 362 348" version="1.1" xmlns="http://www.w3.org/2000/svg" xmlns:xlink="http://www.w3.org/1999/xlink">
    <!-- Generator: Sketch 52.5 (67469) - http://www.bohemiancoding.com/sketch -->
    <title>Group 45</title>
    <desc>Created with Sketch.</desc>
    <defs>
        <linearGradient x1="-48.6155833%" y1="172.361155%" x2="56.8933116%" y2="42.2960372%" id="linearGradient-1">
            <stop stop-color="#FF2A64" offset="0%"/>
            <stop stop-color="#FFAF48" offset="100%"/>
        </linearGradient>
    </defs>
    <g id="Page-1" stroke="none" stroke-width="1" fill="none" fill-rule="evenodd">
        <g id="Homepage" transform="translate(-1078.000000, -9358.000000)">
            <g id="Group-29-+-Group-45-Mask" transform="translate(0.000000, 9097.000000)">
                <g id="Group-45" transform="translate(1271.500000, 435.000000) scale(-1, 1) translate(-1271.500000, -435.000000) translate(1078.000000, 261.000000)">
                    <path d="M242.301086,348 L333,348 C333,348 321.678428,343.774077 316.168272,338.858405 C310.658116,333.942734 312.183856,314.22176 294.710734,314.22176 C277.237612,314.22176 257.286377,315.766407 252.300998,300.368504 C247.315619,284.9706 242.145596,242.614222 210.046752,241.22501 C210.046752,241.22501 155.304763,243.167963 148.628436,227.468902 C141.95211,211.76984 148.550692,178.797926 115.586937,173.318798 C82.6231833,167.83967 77.3171073,147.040356 77.3171073,147.040356 C77.3171073,147.040356 71.4862546,117.361747 34.4311854,117.361747 C34.4311854,117.361747 33.0512169,82 0,82 L0,348 L242.301086,348 Z" id="Path" fill="#002649"/>
                    <path d="M4.32070375,156.616332 C41.3719521,156.616332 47.1684918,186.250245 47.1684918,186.250245 C47.1684918,186.250245 52.4795591,207.057035 85.4431304,212.508511 C118.406702,217.959987 111.784859,250.930747 118.455249,266.577065 C125.125639,282.223383 179.818952,280.312456 179.818952,280.312456 C198.44167,281.117568 207.976347,295.735671 213.70492,310.848482 C216.841803,319.391582 224.433434,325.514248 233.453935,326.776104 C236.337212,327.145663 239.259537,327.083545 242.124471,326.591802 C257.74697,323.943665 266,348 266,348 L0,348 L0,140 C2.42973223,145.233764 3.89345337,150.862865 4.32070375,156.616332 Z" id="Path" fill="#183D6D"/>
                    <path d="M60,204.062564 C60,204.062564 59.024927,178.037436 36.0034525,154 C36.0034525,154 35.2526463,180.84359 55.8949425,211 L60,204.062564 Z" id="Path" fill="#FD8D32"/>
                    <path d="M102,203.82016 L114.923601,72 C114.923601,72 124.095499,130.714317 114.923601,169.626904 C105.751702,208.539491 102,203.82016 102,203.82016 Z" id="Path" fill="#FD8D32"/>
                    <path d="M94.800496,230 C94.800496,230 101.723907,58.4207191 34,0 C34,0 38.6581025,4.65461152 36.1868565,15.8295661 C33.7156106,27.0045207 53.6326763,33.1556044 47.4055287,49.8402974 C41.1783811,66.5249905 42.4041976,79.2061346 56.0745026,94.3554861 C69.7448077,109.504838 38.8640397,126.655963 52.7893146,152.659597 C66.7145894,178.66323 29.1555734,227.696988 94.800496,230 Z" id="Path" fill="#498DBC"/>
                    <path d="M80.0740828,127.195898 C80.0740828,127.195898 62.4125444,56.9330221 52,34 C52,34 82.3157396,143.600328 86.0615385,171.978723 C89.8073373,200.357118 93,152.714985 93,152.714985 L80.0740828,127.195898 Z" id="Path" fill="#DFDACB"/>
                    <path d="M88.199504,339 C88.199504,339 81.2760927,167.420719 149,109 C149,109 144.341897,113.654612 146.813143,124.829566 C149.284389,136.004521 129.367324,142.155604 135.594471,158.840297 C141.821619,175.52499 140.566383,188.225569 126.925497,203.374921 C113.284612,218.524272 144.13596,235.675398 130.210685,261.679032 C116.285411,287.682665 153.844427,336.68727 88.199504,339 Z" id="Path" fill="#3973A2"/>
                    <path d="M111,187.843085 C111,187.843085 121.599861,145.427028 139,129 C139,129 115.793319,163.482048 113.55254,188 L111,187.843085 Z" id="Path" fill="#DFDACB"/>
                    <path d="M118.608371,304.967627 L167,182 C167,182 131.973957,229.955435 122.526208,268.707694 C113.078458,307.459952 118.608371,304.967627 118.608371,304.967627 Z" id="Path" fill="#FD8D32"/>
                    <path d="M73.4961178,285 L2,227 C2,227 30.1476228,232.653078 54.509477,258.593021 C78.8713312,284.532964 73.4961178,285 73.4961178,285 Z" id="Path" fill="#FD8D32"/>
                    <path d="M86,282.081772 C86,282.081772 72.1313227,241.286857 24,214 C24,214 35.5215206,256.902829 82.7470939,295 L86,282.081772 Z" id="Path" fill="#498DBC"/>
                    <polygon id="Path" fill="#3671A5" points="53 245.247286 30 222 51.5136383 246"/>
                    <path d="M85,255.337584 C85,255.337584 74.6033769,207.571595 24,171 C24,171 30.4517362,222.328726 78.6745779,271 L85,255.337584 Z" id="Path" fill="#3671A5"/>
                    <polygon id="Path" fill="#498DBC" points="69 237.821156 33 182 66.4616015 239"/>
                    <path d="M51.8534042,240.069203 C53.2831091,239.681031 54.7794259,239.601785 56.2423038,239.836763 C59.0679008,240.262903 65.0977829,240.321013 68.1661286,233.851442 C72.2540197,225.222119 61.4856796,219.323962 57.3686586,208.912601 C54.4556721,201.658547 59.5048487,197.629592 62.7868136,195.866925 C64.7379015,194.811031 66.2969859,193.15749 67.233973,191.150336 C69.0143942,187.599235 70.0329558,183.716884 70.2246391,179.751107 C70.2246391,172.390517 79.7403951,170.51163 82.8475807,165.223627 C85.9547663,159.935625 79.6821353,153.495109 74.788318,144.042562 C69.8945006,134.590015 73.1861754,120.49836 88.7415234,118.251443 C97.6455522,116.96334 101.073166,120.866389 102.33546,124.449834 C103.149822,126.827392 103.070457,129.419078 102.112132,131.742629 C100.577959,135.694104 98.7427771,144.197522 108.734321,148.904425 C122.095219,155.170611 113.744658,168.477783 113.744658,168.477783 C113.744658,168.477783 105.792204,181.34913 114.239865,185.571784 C120.347427,188.63224 122.784626,195.944405 123.580842,199.130765 C124.01613,200.74504 123.770554,202.466653 122.901145,203.895778 C122.653988,204.277692 122.378078,204.64031 122.075799,204.980497 C118.929774,208.573627 119.81338,215.275638 127.726993,215.498392 C129.582628,214.317586 131.935898,214.239109 133.866462,215.293652 C135.797026,216.348196 136.998117,218.368192 137,220.56364 L137,270.266991 L98.0727902,296 C98.0727902,296 58.0774854,288.416656 45.8235221,264.804659 C36.4825453,246.829324 46.5323488,241.560691 51.8534042,240.069203 Z" id="Path" fill="#002649"/>
                    <g id="Group" opacity="0.6" transform="translate(86.000000, 130.000000)" fill="#498DBC">
                        <path d="M13.884375,81.18 C15.95625,76.8457143 12.31875,70.617619 8.475,64.0185714 C7.584375,62.4859524 6.665625,60.9142857 5.803125,59.3328571 C2.8125,53.817381 4.6875,49.2292857 7.03125,43.4307143 C8.21863779,40.6932129 9.21802137,37.8714474 10.021875,34.9866667 C12.009375,27.3528571 7.70625,22.1692857 4.565625,18.3914286 C3.47592391,17.2166061 2.53113769,15.9049029 1.753125,14.4866667 C-0.075,10.4061905 4.153125,0.370952381 4.18125,0.302619048 L2.1375,3.2897619 C1.978125,3.58261905 -1.35,10.357381 0.721875,15.0040476 C1.53774676,16.5311857 2.53980174,17.9420855 3.703125,19.2016667 C6.84375,22.9892857 10.753125,27.7042857 8.925,34.7230952 C8.13275457,37.5577431 7.14905267,40.3305273 5.98125,43.0207143 C3.58125,48.8778571 1.509375,53.9442857 4.809375,59.9869048 C5.68125,61.5780952 6.609375,63.1692857 7.5,64.7019048 C11.175,71.0080952 14.64375,76.9628571 12.8625,80.7211905 L13.884375,81.18 Z" id="Path"/>
                    </g>
                    <path d="M134.990326,258 C134.990326,258 157.142684,244.630013 167,213 C167,213 143.309553,225.263907 127,257.757439 L134.990326,258 Z" id="Path" fill="#002649"/>
                    <polygon id="Path" fill="#183D6D" points="140.169082 249 161 223 139 248.017583"/>
                    <path d="M123.859975,283.212538 C123.859975,283.212538 155.321496,236.603356 146.410429,165 C146.410429,165 110.995879,210.812942 108,290 L123.859975,283.212538 Z" id="Path" fill="#498DBC"/>
                    <polygon id="Path" fill="#183D6D" opacity="0.5" points="130.309179 245 144 183 128 241.037557"/>
                    <path d="M52.8285735,302.776504 C52.8285735,302.776504 20.2674242,291.581401 12.1613193,281 C12.1613193,281 9.41696325,300.390987 26.5667467,309.101589 C43.7165302,317.812191 72,319 72,319 L52.8285735,302.776504 Z" id="Path" fill="#498DBC"/>
                    <path d="M42.0745571,307.433983 C42.0745571,307.433983 19.8756563,296.157089 17,290 C21.0512882,297.571669 27.7580796,303.455269 35.8860671,306.567993 C49.2539828,311.478438 42.0745571,307.433983 42.0745571,307.433983 Z" id="Path" fill="#DFDACB" opacity="0.3"/>
                    <path d="M92,298.128205 C92,298.128205 87.3672902,273.663409 65.3012175,272.288656 C43.2351447,270.913903 37.8448849,265.076043 36.3103605,263.372124 C34.775836,261.668205 26.5981806,253.109883 24.2866817,265.947366 C21.9751829,278.784848 32.8916731,323.173882 84.6090311,312.301715 L92,298.128205 Z" id="Path" fill="#3671A5"/>
                    <path d="M55.6878592,292.203163 C55.6878592,292.203163 35.4717261,281.690471 31,272 C31,272 34.1449502,286.016923 51.9827147,293.074327 C69.8204792,300.13173 55.6878592,292.203163 55.6878592,292.203163 Z" id="Path" fill="#002649"/>
                    <path d="M124.099935,242.256157 C110.026903,216.060981 111.646114,207.070321 111.828123,204.653292 C112.010131,202.236264 112.393307,189.740129 101.214145,197.519634 C90.034982,205.299138 66.3355402,252.136406 111.828123,283 C129.391352,273.300889 133.481956,259.719608 124.099935,242.256157 Z" id="Path" fill="#183D6D"/>
                    <path d="M105.624643,294.926433 C105.624643,294.926433 87.5086969,296.802005 81.941263,281.612782 C76.373829,266.423558 71.1646473,263.867726 69.6444958,263.148595 C68.1243443,262.429463 60.4267617,258.503394 68.9473563,254.178887 C77.4679508,249.85438 110.85319,248.212039 114,286.773036 L105.624643,294.926433 Z" id="Path" fill="#498DBC"/>
                    <path d="M98,278.019871 C98,278.019871 86.7111947,259.193623 78,258 C78,258 94.3311383,273.701479 96.6171214,279 L98,278.019871 Z" id="Path" fill="#183D6D" opacity="0.5"/>
                    <path d="M184,348 L0,348 C0,348 11.2012672,347.021469 16.3987328,328.429385 C21.5961985,309.837301 31.4470961,303.75084 45.1353749,308.124872 C58.8236536,312.498905 49.9151003,281 81.138754,281 C110.914889,281 104.454488,320.366292 118.055333,308.995765 C131.656177,297.625237 150.017318,312.909888 151.892291,328.429385 C153.767265,343.948883 184,348 184,348 Z" id="Path" fill="#002649"/>
                    <path d="M117,264.107642 C117,264.107642 100.30784,225.69146 101.304245,214 C101.304245,214 98.9128728,228.665179 107.538895,247.902329 C116.164918,267.139479 115.348814,265.986799 115.348814,265.986799 L117,264.107642 Z" id="Path" fill="#002649"/>
                    <path d="M248.42418,184.411635 C248.42418,184.411635 244.322886,196.172763 236.072046,200.749229 C236.072046,200.749229 246.928414,210.125165 230.860989,227.354782 C214.793563,244.584398 195.464402,255.046276 193.611582,267.088585 C191.758762,279.130895 188.786529,295.206699 202.682681,312 L257.080325,269.076245 C257.080325,269.076245 255.391557,296.45747 281.659143,299.288673 L274.276813,268.096959 L281.659143,267.670339 C281.659143,267.670339 285.663937,233.172323 266.218975,218.221243 L269.548261,190.035258 L251.888568,180 L248.42418,184.411635 Z" id="Path" fill="#5BA8D3"/>
                    <path d="M287,170.458999 C287,170.458999 250.106796,129.255591 242.718447,105 C242.718447,105 236.601942,132.540202 242.718447,148.934105 L263.485437,178 L287,170.458999 Z" id="Path" fill="#183D6D"/>
                    <path d="M189.872395,241.675111 C193.498025,249.495974 187.220671,256.243192 187.220671,256.243192 C198.907543,263.945855 152.603616,307 152.603616,307 C149.797609,297.839544 157.685284,285.9802 157.685284,285.9802 C146.731252,264.497452 165.254751,256.991788 165.254751,256.991788 C169.401084,236.100038 189.872395,241.675111 189.872395,241.675111 Z" id="Path" fill="url(#linearGradient-1)"/>
                    <path d="M321,213.402362 C321,213.402362 308.61661,204.248457 305.344065,188.137196 C305.344065,188.137196 294.693769,168.987535 278.55373,168.552096 C273.564007,167.933134 268.516853,167.933134 263.52713,168.552096 L215.358746,110 C215.358746,110 207.516256,145.231892 229.513958,164.294465 L261.600395,196.623428 C261.600395,196.623428 253.499008,222.079871 281.763814,225.872427 C316.050085,230.47294 321,213.402362 321,213.402362 Z" id="Path" fill="url(#linearGradient-1)"/>
                    <path d="M386.99976,305.741429 C387.011819,300.862846 386.569641,295.993594 385.678862,291.195767 L353.462557,288.863063 L384.736751,287.002683 C381.181983,273.13177 373.810208,263.58889 365.311786,263.58889 C364.902932,263.589403 364.494408,263.611928 364.088013,263.656365 L349.519289,264.494982 C349.771814,258.788532 349.975776,251 349.975776,251 L335.863538,251 L327.831315,265.728809 C269.32332,269.054358 162.719109,275.021067 161,274.404154 L161,348 L365.282649,348 C374.791169,348 382.871955,336.114777 385.814837,319.573785 L362.174654,317.472424 L386.455861,315.245752 C386.527086,314.603134 386.591836,313.983007 386.65011,313.385372 L370.002915,311.197257 L386.892923,310.23333 C386.964147,308.73603 386.99976,307.238729 386.99976,305.741429 Z" id="Path" fill="#244C77"/>
                    <ellipse id="Oval" fill="#5BA8D3" cx="161" cy="311" rx="19" ry="37"/>
                    <ellipse id="Oval" fill="#5BA8D3" cx="343" cy="250.5" rx="7" ry="3.5"/>
                    <path d="M167.637363,277 C157.611506,279.889447 150,294.240369 150,311.5 C150,328.759631 157.611506,343.09129 167.637363,346 C174.851325,340.818258 180,327.324539 180,311.5 C180,295.675461 174.861021,282.172111 167.637363,277 Z" id="Path" fill="#002649"/>
                    <path d="M180.526749,314 C180.438957,316.057416 180.25362,318.057416 180,320 L244,314 L180.526749,314 Z" id="Path" fill="#002649"/>
                    <path d="M178,329 L216,326.230624 L179.244107,324 C178.892439,325.73913 178.477737,327.405797 178,329 Z" id="Path" fill="#002649"/>
                    <path d="M339,251.647324 C341.111551,253.030726 343.656361,253.371129 346.008357,252.584786 C349.8433,251.21546 347.62862,248.898137 343.688217,249.00347 C339.747814,249.108803 340.81201,251.257593 345.068796,251.18386" id="Path" stroke="#244C77" stroke-width="0.5"/>
                    <g id="Group-51" transform="translate(288.000000, 196.000000)">
                        <circle id="Oval" fill="#183D6D" cx="5.5" cy="5.5" r="5.5"/>
                        <circle id="Oval" fill="#FFFFFF" cx="7.15" cy="2.75" r="1.65"/>
                    </g>
                    <path d="M281,246 C281,246 296.199193,252.965041 311.233703,254.585044 C316.721573,255.164019 321.208063,259.225491 322.335217,264.634881 L329,296.287986 C329,296.287986 319.990918,301.138294 312.880525,285.520304 C312.880525,285.520304 307.794753,274.752622 307.358829,267.77788 L281.842785,267.77788 C282.493907,260.512388 282.210662,253.193243 281,246 Z" id="Path" fill="#FD8D32"/>
                    <path d="M185,273.98545 C186.879471,261.980716 215.225755,245.723703 231.263911,228.589236 C240.545608,218.676894 240.825119,211.387272 239.417925,207 C261.229432,218.156206 242.974463,245.289797 242.974463,245.289797 L248.179153,249.840989 C270.723172,241.818549 274.414646,268.711081 274.414646,268.711081 L282,300.154805 C262.925775,306.991236 257.451212,270.109223 257.451212,270.109223 L185,273.98545 Z" id="Path" fill="url(#linearGradient-1)"/>
                    <path d="M212.192473,301 C212.192473,301 232.103221,298.841181 234.787923,289.781683 C237.472626,280.722184 213.873995,281.108698 208.858092,288.744695 C205.905875,293.232022 210.568276,297.681641 222.893067,293.533691 C235.217858,289.385742 229.714695,285.3792 221.450398,286.670721 C213.1861,287.962241 214.237051,292.232744 221.192437,290.554709" id="Path" stroke="#5BA8D3"/>
                    <path d="M314.205063,313.019492 C314.205063,313.019492 293.555718,312.235713 289.465181,320.60832 C285.374644,328.980928 309.436047,332.042278 315.689849,325.357101 C319.396898,321.438204 315.345693,316.468121 302.149778,318.699587 C288.953864,320.931053 293.939206,325.587624 302.552932,325.587624 C311.166659,325.587624 310.763505,321.244565 303.428071,321.899251" id="Path" stroke="#5BA8D3"/>
                </g>
            </g>
        </g>
    </g>
</svg>